# xmcd
#
# Track frame offsets:
#	150
#	11427
#	23377
#	36392
#	47770
#	58170
#	71625
#	83637
#	97082
#	108325
#	120622
#	132957
#
# Disc length: 1949 seconds
#
# Revision: 3
# Processed by: cddbd v1.5.2PL0 Copyright (c) Steve Scherf et al.
# Submitted via: audiograbber 1.83.01
#
DISCID=9a079b0c
DTITLE=Johnny Ace - Memorial Album
DYEAR=1973
DGENRE=Oldies
TTITLE0=Pledging My Love
TTITLE1=Don't You Know
TTITLE2=Never Let Me Go
TTITLE3=So Lonely
TTITLE4=I'm Crazy Baby
TTITLE5=My Song
TTITLE6=Saving My Love For You
TTITLE7=The Clock
TTITLE8=How Can You Be So Mean
TTITLE9=Still Love You So
TTITLE10=Cross My Heart
TTITLE11=Anymore
EXTD=
EXTT0=
EXTT1=
EXTT2=
EXTT3=
EXTT4=
EXTT5=
EXTT6=
EXTT7=
EXTT8=
EXTT9=
EXTT10=
EXTT11=
PLAYORDER=
